<mxfile host="app.diagrams.net" modified="2021-07-24T07:42:16.339Z" agent="5.0 (Windows NT 10.0; Win64; x64) AppleWebKit/537.36 (KHTML, like Gecko) Chrome/91.0.4472.164 Safari/537.36" etag="7G_VS8OcCjiK6dGnEBM7" version="14.9.2" type="github">
  <diagram id="g2yPmT7MQt7GzCPcFH7Z" name="第 1 页">
    <mxGraphModel dx="1038" dy="547" grid="1" gridSize="10" guides="1" tooltips="1" connect="1" arrows="1" fold="1" page="1" pageScale="1" pageWidth="827" pageHeight="1169" math="0" shadow="0">
      <root>
        <mxCell id="0" />
        <mxCell id="1" parent="0" />
        <mxCell id="Ok9lzhFIB3tagr9eqbKH-2" value="软件系统，已实现" style="rounded=0;whiteSpace=wrap;html=1;fillColor=#7EA6E0;" vertex="1" parent="1">
          <mxGeometry x="160" y="45" width="120" height="60" as="geometry" />
        </mxCell>
        <mxCell id="Ok9lzhFIB3tagr9eqbKH-3" value="&lt;b&gt;用户&lt;/b&gt;" style="shape=actor;whiteSpace=wrap;html=1;" vertex="1" parent="1">
          <mxGeometry x="30" y="20" width="80" height="110" as="geometry" />
        </mxCell>
        <mxCell id="Ok9lzhFIB3tagr9eqbKH-4" value="软件系统，未实现" style="rounded=0;whiteSpace=wrap;html=1;fillColor=#E6E6E6;" vertex="1" parent="1">
          <mxGeometry x="354" y="45" width="120" height="60" as="geometry" />
        </mxCell>
      </root>
    </mxGraphModel>
  </diagram>
</mxfile>
